<svg xmlns="http://www.w3.org/2000/svg" width="88" height="31" viewBox="0 0 88 31" shape-rendering="crispEdges">
  <rect width="88" height="31" fill="#17161e"/>
  <rect x="1" y="1" width="86" height="29" fill="#2a2533"/>
  <rect x="3" y="3" width="82" height="25" fill="#201c28"/>

  <rect x="4" y="4" width="80" height="1" fill="#e4bdf7"/>
  <rect x="4" y="6" width="80" height="1" fill="#d58ef5"/>
  <rect x="4" y="8" width="80" height="1" fill="#ff9cc5"/>
  <rect x="4" y="24" width="80" height="1" fill="#d58ef5"/>

  <rect x="6" y="10" width="53" height="12" fill="#252030"/>
  <rect x="7" y="11" width="51" height="10" fill="#1a1721"/>

  <rect x="8" y="12" width="7" height="2" fill="#f5efff"/>
  <rect x="11" y="14" width="2" height="5" fill="#f5efff"/>
  <rect x="8" y="19" width="6" height="2" fill="#f5efff"/>
  <rect x="8" y="17" width="2" height="2" fill="#f5efff"/>

  <rect x="18" y="12" width="6" height="2" fill="#f5efff"/>
  <rect x="16" y="14" width="2" height="5" fill="#f5efff"/>
  <rect x="18" y="19" width="6" height="2" fill="#f5efff"/>
  <rect x="24" y="14" width="2" height="5" fill="#f5efff"/>

  <rect x="29" y="12" width="7" height="2" fill="#f5efff"/>
  <rect x="27" y="14" width="2" height="3" fill="#f5efff"/>
  <rect x="34" y="14" width="2" height="5" fill="#f5efff"/>
  <rect x="29" y="19" width="7" height="2" fill="#f5efff"/>

  <rect x="40" y="18" width="2" height="2" fill="#ff9cc5"/>
  <rect x="44" y="18" width="2" height="2" fill="#ff9cc5"/>

  <rect x="50" y="12" width="6" height="2" fill="#f5efff"/>
  <rect x="48" y="14" width="2" height="5" fill="#f5efff"/>
  <rect x="50" y="19" width="6" height="2" fill="#f5efff"/>
  <rect x="56" y="14" width="2" height="5" fill="#f5efff"/>

  <rect x="62" y="9" width="19" height="15" fill="#2f2c38"/>
  <rect x="65" y="11" width="11" height="11" fill="#d8a264"/>
  <rect x="67" y="10" width="6" height="1" fill="#f2c98d"/>
  <rect x="64" y="12" width="13" height="9" fill="#c48a4d"/>
  <rect x="66" y="12" width="8" height="1" fill="#f6ddb6"/>
  <rect x="66" y="14" width="2" height="2" fill="#5b3923"/>
  <rect x="72" y="14" width="2" height="2" fill="#5b3923"/>
  <rect x="69" y="16" width="2" height="2" fill="#5b3923"/>
  <rect x="74" y="18" width="1" height="1" fill="#5b3923"/>
  <rect x="67" y="18" width="1" height="1" fill="#5b3923"/>
  <rect x="75" y="13" width="1" height="1" fill="#fff0cf"/>
</svg>
